<svg width="177" height="177" viewBox="0 0 177 177" fill="none" xmlns="http://www.w3.org/2000/svg">
<path d="M91.8014 3.93275C91.3371 0.022449 85.663 0.022449 85.1986 3.93265L82.4771 26.8695C79.0173 56.028 56.028 79.0173 26.8695 82.4771L3.93275 85.1986C0.022449 85.663 0.022449 91.3371 3.93265 91.8014L26.8695 94.523C56.028 97.9827 79.0173 120.972 82.4771 150.13L85.1986 173.067C85.6629 176.978 91.3371 176.978 91.8014 173.067L94.523 150.13C97.9827 120.972 120.972 97.9827 150.13 94.523L173.067 91.8014C176.978 91.3371 176.978 85.6629 173.067 85.1986L150.13 82.4771C120.972 79.0173 97.9827 56.028 94.523 26.8695L91.8014 3.93275Z" stroke="#E1304D" stroke-width="2"/>
</svg>
